<mxfile host="app.diagrams.net" agent="Mozilla/5.0 (Windows NT 10.0; Win64; x64) AppleWebKit/537.36 (KHTML, like Gecko) Chrome/126.0.0.0 Safari/537.36" version="24.7.5">
  <diagram name="Page-1" id="X1DlVhuRWVqJeIuppRjV">
    <mxGraphModel>
      <root>
        <mxCell id="0" />
        <mxCell id="1" parent="0" />
        <mxCell id="2" value="Security" style="whiteSpace=wrap;strokeWidth=2;verticalAlign=top;" vertex="1" parent="1">
          <mxGeometry x="1215" y="217" width="521" height="84" as="geometry" />
        </mxCell>
        <mxCell id="3" value="Security Groups" style="whiteSpace=wrap;strokeWidth=2;" vertex="1" parent="1">
          <mxGeometry x="1250" y="242" width="128" height="34" as="geometry" />
        </mxCell>
        <mxCell id="4" value="KMS Encryption" style="whiteSpace=wrap;strokeWidth=2;" vertex="1" parent="1">
          <mxGeometry x="1428" y="242" width="125" height="34" as="geometry" />
        </mxCell>
        <mxCell id="5" value="IAM Policies" style="whiteSpace=wrap;strokeWidth=2;" vertex="1" parent="1">
          <mxGeometry x="1602" y="242" width="99" height="34" as="geometry" />
        </mxCell>
        <mxCell id="6" value="AWS Services" style="whiteSpace=wrap;strokeWidth=2;verticalAlign=top;" vertex="1" parent="1">
          <mxGeometry x="374" y="351" width="897" height="84" as="geometry" />
        </mxCell>
        <mxCell id="7" value="EC2 Instances" style="whiteSpace=wrap;strokeWidth=2;" vertex="1" parent="1">
          <mxGeometry x="475" y="376" width="113" height="34" as="geometry" />
        </mxCell>
        <mxCell id="8" value="RDS Database" style="whiteSpace=wrap;strokeWidth=2;" vertex="1" parent="1">
          <mxGeometry x="638" y="376" width="112" height="34" as="geometry" />
        </mxCell>
        <mxCell id="9" value="S3 Bucket" style="whiteSpace=wrap;strokeWidth=2;" vertex="1" parent="1">
          <mxGeometry x="800" y="376" width="85" height="34" as="geometry" />
        </mxCell>
        <mxCell id="10" value="Elastic Load Balancer" style="whiteSpace=wrap;strokeWidth=2;" vertex="1" parent="1">
          <mxGeometry x="935" y="376" width="168" height="34" as="geometry" />
        </mxCell>
        <mxCell id="11" value="IAM Roles" style="whiteSpace=wrap;strokeWidth=2;" vertex="1" parent="1">
          <mxGeometry x="1153" y="376" width="82" height="34" as="geometry" />
        </mxCell>
        <mxCell id="12" value="Terraform setup" style="whiteSpace=wrap;strokeWidth=2;verticalAlign=top;" vertex="1" parent="1">
          <mxGeometry y="217" width="775" height="84" as="geometry" />
        </mxCell>
        <mxCell id="13" value="Terraform Configuration" style="whiteSpace=wrap;strokeWidth=2;" vertex="1" parent="1">
          <mxGeometry x="35" y="242" width="188" height="34" as="geometry" />
        </mxCell>
        <mxCell id="14" value="Terraform State" style="whiteSpace=wrap;strokeWidth=2;" vertex="1" parent="1">
          <mxGeometry x="273" y="242" width="129" height="34" as="geometry" />
        </mxCell>
        <mxCell id="15" value="Terraform Deployment" style="whiteSpace=wrap;strokeWidth=2;" vertex="1" parent="1">
          <mxGeometry x="452" y="242" width="177" height="34" as="geometry" />
        </mxCell>
        <mxCell id="16" value="Architecture Components" style="whiteSpace=wrap;strokeWidth=2;verticalAlign=top;" vertex="1" parent="1">
          <mxGeometry x="59" y="84" width="1638" height="84" as="geometry" />
        </mxCell>
        <mxCell id="17" value="Terraform setup" style="whiteSpace=wrap;strokeWidth=2;" vertex="1" parent="1">
          <mxGeometry x="270" y="109" width="131" height="34" as="geometry" />
        </mxCell>
        <mxCell id="18" value="AWS Services" style="whiteSpace=wrap;strokeWidth=2;" vertex="1" parent="1">
          <mxGeometry x="1121" y="109" width="108" height="34" as="geometry" />
        </mxCell>
        <mxCell id="19" value="Application" style="whiteSpace=wrap;strokeWidth=2;" vertex="1" parent="1">
          <mxGeometry x="1303" y="109" width="97" height="34" as="geometry" />
        </mxCell>
        <mxCell id="20" value="Security" style="whiteSpace=wrap;strokeWidth=2;" vertex="1" parent="1">
          <mxGeometry x="1463" y="109" width="73" height="34" as="geometry" />
        </mxCell>
        <mxCell id="21" value="Automated Application Deployment using Terraform and AWS" style="whiteSpace=wrap;strokeWidth=2;" vertex="1" parent="1">
          <mxGeometry x="849" width="451" height="34" as="geometry" />
        </mxCell>
        <mxCell id="22" value="" style="curved=1;startArrow=none;endArrow=block;exitX=0;exitY=0.87;entryX=0.5;entryY=-0.01;" edge="1" parent="1" source="21" target="17">
          <mxGeometry relative="1" as="geometry">
            <Array as="points">
              <mxPoint x="335" y="59" />
            </Array>
          </mxGeometry>
        </mxCell>
        <mxCell id="23" value="" style="curved=1;startArrow=none;endArrow=block;exitX=0.59;exitY=0.99;entryX=0.5;entryY=-0.01;" edge="1" parent="1" source="21" target="18">
          <mxGeometry relative="1" as="geometry">
            <Array as="points">
              <mxPoint x="1175" y="59" />
            </Array>
          </mxGeometry>
        </mxCell>
        <mxCell id="24" value="" style="curved=1;startArrow=none;endArrow=block;exitX=0.75;exitY=0.99;entryX=0.5;entryY=-0.01;" edge="1" parent="1" source="21" target="19">
          <mxGeometry relative="1" as="geometry">
            <Array as="points">
              <mxPoint x="1351" y="59" />
            </Array>
          </mxGeometry>
        </mxCell>
        <mxCell id="25" value="" style="curved=1;startArrow=none;endArrow=block;exitX=0.88;exitY=0.99;entryX=0.5;entryY=-0.01;" edge="1" parent="1" source="21" target="20">
          <mxGeometry relative="1" as="geometry">
            <Array as="points">
              <mxPoint x="1500" y="59" />
            </Array>
          </mxGeometry>
        </mxCell>
        <mxCell id="26" value="" style="curved=1;startArrow=none;endArrow=block;exitX=0;exitY=0.88;entryX=0.5;entryY=0.01;" edge="1" parent="1" source="17" target="13">
          <mxGeometry relative="1" as="geometry">
            <Array as="points">
              <mxPoint x="129" y="167" />
            </Array>
          </mxGeometry>
        </mxCell>
        <mxCell id="27" value="" style="curved=1;startArrow=none;endArrow=block;exitX=0.51;exitY=0.98;entryX=0.5;entryY=0.01;" edge="1" parent="1" source="17" target="14">
          <mxGeometry relative="1" as="geometry">
            <Array as="points">
              <mxPoint x="338" y="167" />
            </Array>
          </mxGeometry>
        </mxCell>
        <mxCell id="28" value="" style="curved=1;startArrow=none;endArrow=block;exitX=1;exitY=0.88;entryX=0.5;entryY=0.01;" edge="1" parent="1" source="17" target="15">
          <mxGeometry relative="1" as="geometry">
            <Array as="points">
              <mxPoint x="541" y="167" />
            </Array>
          </mxGeometry>
        </mxCell>
        <mxCell id="29" value="" style="curved=1;startArrow=none;endArrow=block;exitX=0;exitY=0.67;entryX=1;entryY=0.26;" edge="1" parent="1" source="18" target="7">
          <mxGeometry relative="1" as="geometry">
            <Array as="points">
              <mxPoint x="823" y="167" />
              <mxPoint x="823" y="351" />
            </Array>
          </mxGeometry>
        </mxCell>
        <mxCell id="30" value="" style="curved=1;startArrow=none;endArrow=block;exitX=0;exitY=0.74;entryX=1;entryY=0.18;" edge="1" parent="1" source="18" target="8">
          <mxGeometry relative="1" as="geometry">
            <Array as="points">
              <mxPoint x="914" y="167" />
              <mxPoint x="914" y="351" />
            </Array>
          </mxGeometry>
        </mxCell>
        <mxCell id="31" value="" style="curved=1;startArrow=none;endArrow=block;exitX=0;exitY=0.86;entryX=1;entryY=0.16;" edge="1" parent="1" source="18" target="9">
          <mxGeometry relative="1" as="geometry">
            <Array as="points">
              <mxPoint x="999" y="167" />
              <mxPoint x="999" y="351" />
            </Array>
          </mxGeometry>
        </mxCell>
        <mxCell id="32" value="" style="curved=1;startArrow=none;endArrow=block;exitX=0.21;exitY=0.98;entryX=0.69;entryY=0;" edge="1" parent="1" source="18" target="10">
          <mxGeometry relative="1" as="geometry">
            <Array as="points">
              <mxPoint x="1097" y="167" />
              <mxPoint x="1097" y="351" />
            </Array>
          </mxGeometry>
        </mxCell>
        <mxCell id="33" value="" style="curved=1;startArrow=none;endArrow=block;exitX=0.57;exitY=0.98;entryX=0.51;entryY=0;" edge="1" parent="1" source="18" target="11">
          <mxGeometry relative="1" as="geometry">
            <Array as="points">
              <mxPoint x="1195" y="167" />
            </Array>
          </mxGeometry>
        </mxCell>
        <mxCell id="34" value="" style="curved=1;startArrow=none;endArrow=block;exitX=0;exitY=0.73;entryX=0.5;entryY=0.01;" edge="1" parent="1" source="20" target="3">
          <mxGeometry relative="1" as="geometry">
            <Array as="points">
              <mxPoint x="1314" y="167" />
            </Array>
          </mxGeometry>
        </mxCell>
        <mxCell id="35" value="" style="curved=1;startArrow=none;endArrow=block;exitX=0.45;exitY=0.98;entryX=0.49;entryY=0.01;" edge="1" parent="1" source="20" target="4">
          <mxGeometry relative="1" as="geometry">
            <Array as="points">
              <mxPoint x="1490" y="167" />
            </Array>
          </mxGeometry>
        </mxCell>
        <mxCell id="36" value="" style="curved=1;startArrow=none;endArrow=block;exitX=1;exitY=0.78;entryX=0.5;entryY=0.01;" edge="1" parent="1" source="20" target="5">
          <mxGeometry relative="1" as="geometry">
            <Array as="points">
              <mxPoint x="1652" y="167" />
            </Array>
          </mxGeometry>
        </mxCell>
        <mxCell id="37" value="" style="curved=1;startArrow=none;endArrow=block;exitX=0.27;exitY=1;entryX=0.17;entryY=0;" edge="1" parent="1" source="15" target="7">
          <mxGeometry relative="1" as="geometry">
            <Array as="points">
              <mxPoint x="440" y="301" />
              <mxPoint x="440" y="351" />
            </Array>
          </mxGeometry>
        </mxCell>
        <mxCell id="38" value="" style="curved=1;startArrow=none;endArrow=block;exitX=0.48;exitY=1;entryX=0;entryY=0.07;" edge="1" parent="1" source="15" target="8">
          <mxGeometry relative="1" as="geometry">
            <Array as="points">
              <mxPoint x="531" y="301" />
              <mxPoint x="531" y="351" />
            </Array>
          </mxGeometry>
        </mxCell>
        <mxCell id="39" value="" style="curved=1;startArrow=none;endArrow=block;exitX=0.67;exitY=1;entryX=0;entryY=0.26;" edge="1" parent="1" source="15" target="9">
          <mxGeometry relative="1" as="geometry">
            <Array as="points">
              <mxPoint x="615" y="301" />
              <mxPoint x="615" y="351" />
            </Array>
          </mxGeometry>
        </mxCell>
        <mxCell id="40" value="" style="curved=1;startArrow=none;endArrow=block;exitX=0.9;exitY=1;entryX=0;entryY=0.16;" edge="1" parent="1" source="15" target="10">
          <mxGeometry relative="1" as="geometry">
            <Array as="points">
              <mxPoint x="714" y="301" />
              <mxPoint x="714" y="351" />
            </Array>
          </mxGeometry>
        </mxCell>
      </root>
    </mxGraphModel>
  </diagram>
</mxfile>
